<?xml version="1.0" encoding="utf-8"?>
<!-- Generator: Adobe Illustrator 22.0.0, SVG Export Plug-In . SVG Version: 6.00 Build 0)  -->
<svg version="1.1" id="Слой_1" xmlns="http://www.w3.org/2000/svg" xmlns:xlink="http://www.w3.org/1999/xlink" x="0px" y="0px"
	 viewBox="0 0 19.2 13.2" style="enable-background:new 0 0 19.2 13.2;" xml:space="preserve">
<style type="text/css">
	.st0{fill:#FFFFFF;}
</style>
<path class="st0" d="M15.5,2.3C15.5,2.3,15.5,2.2,15.5,2.3c-0.7-0.7-1.6-1-2.5-0.9c0.9-0.1,1.3-0.4,1.5-0.6c0-0.1,0-0.3-0.2-0.3
	c-0.4,0-0.9,0.1-1.2,0.3c0.4-0.3,0.6-0.4,0.6-0.6c-0.4,0-0.9,0.3-1.5,0.7c0.1-0.3,0.3-0.4,0.1-0.6c-0.3,0.1-0.4,0.3-0.6,0.6
	C11.3,1.3,11,1.6,10.8,2c-0.6,1-1,1.9-1.3,2.9H9.3c-0.2-0.3-0.7-0.7-1.3-1C7.4,3.5,6.7,3.2,5.8,2.8C4.8,2.3,3.9,1.9,2.8,1.6
	c0,1,0.4,1.9,1.5,2.4C4,4,3.7,4,3.3,4.1C3.3,5,4,5.7,5.4,6C5,6,4.5,6.1,4.1,6.4c0.4,0.9,1.1,1.2,2.3,1.2C6.3,7.8,6.1,7.9,6.1,7.9
	C5.9,8,5.8,8.3,5.9,8.6C6.2,9,6.5,9.2,7.2,9.2c-1,1-2.4,1.6-3.9,1.4c-0.9,0-1.9-0.4-3-1.3c1,1.4,2.5,2.6,4.3,3.3
	c2.1,0.6,4.2,0.7,6.1,0.1c1.9-0.6,3.7-1.7,5.1-3.3c0.6-0.9,1-1.7,1.2-2.6c1,0,1.8-0.3,2.2-0.9c-0.3,0.1-1,0.1-2.1-0.1
	c1-0.1,1.8-0.4,1.9-1c-0.7,0.3-1.5,0.3-2.2,0C16.8,3.9,16.4,3.1,15.5,2.3z"/>
</svg>
