<?xml version="1.0" encoding="utf-8"?>
<!-- Generator: Adobe Illustrator 22.0.0, SVG Export Plug-In . SVG Version: 6.00 Build 0)  -->
<svg version="1.1" id="Слой_1" xmlns="http://www.w3.org/2000/svg" xmlns:xlink="http://www.w3.org/1999/xlink" x="0px" y="0px"
	 viewBox="0 0 149.8 22.6" style="enable-background:new 0 0 149.8 22.6;" xml:space="preserve">
<style type="text/css">
	.st0{fill:#FFFFFF;stroke:#414C51;stroke-width:0.7088;stroke-miterlimit:10;}
</style>
<g>
	<path class="st0" d="M134,13.5c0.6-2.9,2.4-4.5,5.1-4.5c2.7,0,3.8,1.6,3.2,4.5c-0.6,2.9-2.4,4.4-5.1,4.4S133.4,16.4,134,13.5z
		 M127.3,13.5c-1.2,5.7,1.8,8.7,9.1,8.7s11.5-3,12.7-8.7c0.4-1.9,0.3-3.6-0.2-4.9l-3.1,0l1.8-1.8c-1.5-1.3-4-2-7.5-2
		C132.8,4.8,128.5,7.8,127.3,13.5z"/>
	<path class="st0" d="M105.5,5.4c2.3,0,3.3,0.5,2.9,2.2c-0.4,1.8-1.5,2.2-3.9,2.2h-4.3l0.9-4.5H105.5z M89.9,21.6h7.8l1.5-7.3h7.3
		c5.8,0,9.5-2.5,10.4-6.7c0.9-4.2-1.8-6.7-7.6-6.7H94.2L89.9,21.6z"/>
	<path class="st0" d="M124.8,5h-12.4L109,21.6h6.4l1-5h3.8c1.5,0,2.1,0.4,1.9,1.6c-0.1,1.4-0.6,2.6-0.3,3.4h7l0.1-0.3
		c-0.7-0.4-0.4-1.8,0-4.1c0.3-1.9,0.3-2.8-1.3-3.5c1.8-0.7,3.1-2.2,3.5-4.2c0.3-1.6-0.1-2.8-1.1-3.6C129.1,5.2,127.3,5,124.8,5z
		 M117.3,12.2l0.6-3h3.5c1.8,0,2.7,0.2,2.5,1.4c-0.3,1.2-1.2,1.5-2.9,1.5H117.3z"/>
	<path class="st0" d="M85.2,5H72.8l-3.4,16.5h6.4l1-5h3.8c1.5,0,2.1,0.4,1.9,1.6c-0.1,1.4-0.6,2.6-0.3,3.4h7l0.1-0.3
		c-0.7-0.4-0.4-1.8,0-4.1c0.3-1.9,0.3-2.8-1.3-3.5c1.8-0.7,3.1-2.2,3.5-4.2c0.3-1.6-0.1-2.8-1.1-3.6C89.4,5.2,87.7,5,85.2,5z
		 M77.7,12.2l0.6-3h3.5c1.8,0,2.7,0.2,2.5,1.4c-0.3,1.2-1.2,1.5-2.9,1.5H77.7z"/>
	<path class="st0" d="M19.1,9.7h9c0.9-5.9-3-9.2-11.5-9.2c-9,0-14.4,3.7-15.9,10.9C-0.8,18.5,3,22.2,12,22.2c8.1,0,13.3-3,15.3-8.7
		h-9c-0.9,2.2-2.7,3.4-5.1,3.4c-3.4,0-4.8-1.9-4-5.6c0.8-3.6,3-5.6,6.4-5.6C18.1,5.7,19.4,7.1,19.1,9.7z"/>
	<path class="st0" d="M29.2,13.5c0.6-2.9,2.4-4.5,5.1-4.5c2.7,0,3.8,1.6,3.2,4.5c-0.6,2.9-2.4,4.4-5.1,4.4
		C29.7,17.9,28.6,16.4,29.2,13.5z M22.4,13.5c-1.2,5.7,1.8,8.7,9.1,8.7c7.2,0,11.5-3,12.7-8.7c1.2-5.7-1.8-8.7-9.1-8.7
		C27.9,4.8,23.6,7.8,22.4,13.5z"/>
	<path class="st0" d="M58.8,13.5c0.6-2.9,2.4-4.5,5.1-4.5c2.7,0,3.8,1.6,3.2,4.5c-0.6,2.9-2.4,4.4-5.1,4.4
		C59.3,17.9,58.2,16.4,58.8,13.5z M52,13.5c-1.2,5.7,1.8,8.7,9.1,8.7c7.2,0,11.5-3,12.7-8.7C75,7.8,72,4.8,64.8,4.8
		C57.5,4.8,53.2,7.8,52,13.5z"/>
	<polygon class="st0" points="39.5,21.6 55.7,21.6 56.6,17 46.7,17 49.3,5 43,5 	"/>
</g>
</svg>
